HIERARCHY
ROOT root
{
  OFFSET 0.0000 0.0000 0.0000
  CHANNELS 6 Xposition Yposition Zposition Zrotation Xrotation Yrotation
  JOINT lowerback
  {
    OFFSET 0.0000 0.0000 -0.0000
    CHANNELS 3 Zrotation Xrotation Yrotation
    JOINT upperback
    {
      OFFSET -0.2975 11.0962 -0.4289
      CHANNELS 3 Zrotation Xrotation Yrotation
      JOINT thorax
      {
        OFFSET -0.0009 11.0405 -0.3169
        CHANNELS 3 Zrotation Xrotation Yrotation
        JOINT neck
        {
          OFFSET 0.1944 11.1642 0.0841
          CHANNELS 3 Zrotation Xrotation Yrotation
          JOINT head
          {
            OFFSET 1.6277 15.5530 -0.6089
            CHANNELS 3 Zrotation Xrotation Yrotation
            End Site
            {
                OFFSET 1.6718 15.6229 -0.2750
            }
          }
        }
      }
      JOINT lshoulderjoint
      {
        OFFSET -0.0009 11.0405 -0.3169
        CHANNELS 3 Zrotation Xrotation Yrotation
        JOINT lhumerus
        {
          OFFSET 14.1669 18.7170 0.1105
          CHANNELS 3 Zrotation Xrotation Yrotation
          JOINT lradius
          {
            OFFSET 29.5186 0.0000 0.0000
            CHANNELS 3 Zrotation Xrotation Yrotation
            JOINT lhand
            {
              OFFSET 23.9354 0.0000 0.0000
              CHANNELS 3 Zrotation Xrotation Yrotation
              End Site
              {
                  OFFSET 7.8063 -1.3274 0.0000
              }
            }
          }
        }
      }
      JOINT rshoulderjoint
      {
        OFFSET -0.0009 11.0405 -0.3169
        CHANNELS 3 Zrotation Xrotation Yrotation
        JOINT rhumerus
        {
          OFFSET -14.2042 18.2168 -0.2511
          CHANNELS 3 Zrotation Xrotation Yrotation
          JOINT rradius
          {
            OFFSET -29.7619 0.0000 0.0000
            CHANNELS 3 Zrotation Xrotation Yrotation
            JOINT rhand
            {
              OFFSET -25.1658 0.0000 0.0000
              CHANNELS 3 Zrotation Xrotation Yrotation
              End Site
              {
                  OFFSET -6.2475 -1.3274 0.0000
              }
            }
          }
        }
      }
    }
  }
  JOINT rfemur
  {
    OFFSET -7.7032 -9.8555 2.1513
    CHANNELS 3 Zrotation Xrotation Yrotation
    JOINT rtibia
    {
      OFFSET -7.1353 -40.4666 -0.0000
      CHANNELS 3 Zrotation Xrotation Yrotation
      JOINT rfoot
      {
        OFFSET -6.6645 -37.7961 -0.0000
        CHANNELS 3 Zrotation Xrotation Yrotation
        JOINT rtoes
        {
          OFFSET -3.4134 -6.6508 11.8768
          CHANNELS 3 Zrotation Xrotation Yrotation
          End Site
          {
              OFFSET 0.0258 0.1074 4.9873
          }
        }
      }
    }
  }
  JOINT lfemur
  {
    OFFSET 8.5590 -9.8555 2.1513
    CHANNELS 3 Zrotation Xrotation Yrotation
    JOINT ltibia
    {
      OFFSET 7.2751 -41.2593 0.0000
      CHANNELS 3 Zrotation Xrotation Yrotation
      JOINT lfoot
      {
        OFFSET 6.5686 -37.2525 0.0000
        CHANNELS 3 Zrotation Xrotation Yrotation
        JOINT ltoes
        {
          OFFSET 3.2326 -4.1860 10.4122
          CHANNELS 3 Zrotation Xrotation Yrotation
          End Site
          {
              OFFSET -0.1023 0.5105 5.7860
          }
        }
      }
    }
  }
}
MOTION
Frames:	28
Frame Time:	0.008333
-182.0428 90.5899 -229.2492 -10.55 26.50 28.98 0.00 0.00 0.00 0.00 0.00 0.00 0.00 0.00 0.00 0.00 0.00 0.00 0.00 0.00 0.00 -0.00 0.00 0.00 0.00 0.00 -0.00 0.00 0.00 -0.00 0.00 0.00 0.00 0.00 0.00 -0.00 0.00 0.00 0.00 0.00 0.00 0.00 -0.00 0.00 0.00 -7.17 8.29 27.65 6.96 -53.48 13.77 11.68 14.37 -36.65 0.00 0.00 -0.00 -18.39 -36.41 -3.70 -2.98 39.39 8.32 2.29 -33.44 1.23 -0.00 0.00 0.00 
-182.0213 90.5822 -229.2143 -10.59 26.52 29.01 0.00 0.00 0.00 0.00 0.00 0.00 0.00 0.00 0.00 0.00 0.00 0.00 0.00 0.00 0.00 -0.00 0.00 0.00 0.00 0.00 -0.00 0.00 0.00 -0.00 0.00 0.00 0.00 0.00 0.00 -0.00 0.00 0.00 0.00 0.00 0.00 0.00 -0.00 0.00 0.00 -7.14 8.30 27.64 6.96 -53.48 13.77 11.66 14.34 -36.63 0.00 0.00 -0.00 -18.39 -36.41 -3.73 -2.99 39.40 8.33 2.29 -33.45 1.22 -0.00 0.00 0.00 
-181.9907 90.5713 -229.1643 -10.65 26.54 29.06 0.00 0.00 0.00 0.00 0.00 0.00 0.00 0.00 0.00 0.00 0.00 0.00 0.00 0.00 0.00 -0.00 0.00 0.00 0.00 0.00 -0.00 0.00 0.00 -0.00 0.00 0.00 0.00 0.00 0.00 -0.00 0.00 0.00 0.00 0.00 0.00 0.00 -0.00 0.00 0.00 -7.10 8.31 27.61 6.97 -53.48 13.78 11.62 14.30 -36.61 0.00 0.00 -0.00 -18.38 -36.42 -3.77 -2.99 39.42 8.33 2.29 -33.45 1.21 -0.00 0.00 0.00 
-181.9550 90.5592 -229.1070 -10.71 26.56 29.11 0.00 0.00 0.00 0.00 0.00 0.00 0.00 0.00 0.00 0.00 0.00 0.00 0.00 0.00 0.00 -0.00 0.00 0.00 0.00 0.00 -0.00 0.00 0.00 -0.00 0.00 0.00 0.00 0.00 0.00 -0.00 0.00 0.00 0.00 0.00 0.00 0.00 -0.00 0.00 0.00 -7.06 8.33 27.59 6.97 -53.48 13.78 11.58 14.25 -36.59 0.00 0.00 -0.00 -18.36 -36.43 -3.80 -2.99 39.43 8.34 2.29 -33.46 1.21 -0.00 0.00 0.00 
-181.9181 90.5480 -229.0501 -10.77 26.56 29.15 0.00 0.00 0.00 0.00 0.00 0.00 0.00 0.00 0.00 0.00 0.00 0.00 0.00 0.00 0.00 0.00 0.00 0.00 0.00 0.00 0.00 0.00 0.00 0.00 0.00 0.00 0.00 0.00 0.00 0.00 0.00 0.00 0.00 0.00 0.00 0.00 0.00 0.00 0.00 -7.01 8.35 27.58 6.96 -53.47 13.77 11.54 14.20 -36.56 0.00 0.00 0.00 -18.33 -36.41 -3.82 -3.00 39.45 8.34 2.29 -33.48 1.23 0.00 0.00 0.00 
-181.8801 90.5368 -228.9962 -10.82 26.56 29.19 0.00 0.00 0.00 0.00 0.00 0.00 0.00 0.00 0.00 0.00 0.00 0.00 0.00 0.00 0.00 -0.00 -0.00 -0.00 0.00 0.00 0.00 0.00 0.00 0.00 -0.00 0.00 0.00 0.00 -0.00 0.00 0.00 0.00 -0.00 0.00 0.00 -0.00 0.00 0.00 0.00 -6.95 8.38 27.57 6.95 -53.45 13.76 11.50 14.15 -36.55 0.00 0.00 -0.00 -18.28 -36.39 -3.83 -3.00 39.47 8.35 2.32 -33.49 1.27 -0.00 0.00 0.00 
-181.8393 90.5250 -228.9409 -10.88 26.54 29.22 0.00 0.00 0.00 0.00 0.00 0.00 0.00 0.00 0.00 0.00 0.00 0.00 0.00 0.00 0.00 -0.00 -0.00 -0.00 0.00 0.00 0.00 0.00 0.00 0.00 -0.00 0.00 0.00 0.00 -0.00 0.00 0.00 0.00 -0.00 0.00 0.00 -0.00 0.00 0.00 0.00 -6.88 8.42 27.57 6.94 -53.43 13.75 11.46 14.09 -36.53 0.00 0.00 -0.00 -18.23 -36.36 -3.83 -3.00 39.48 8.35 2.35 -33.52 1.32 -0.00 0.00 0.00 
-181.7969 90.5151 -228.8818 -10.93 26.51 29.23 0.00 0.00 0.00 0.00 0.00 0.00 0.00 0.00 0.00 0.00 0.00 0.00 0.00 0.00 0.00 -0.00 -0.00 -0.00 0.00 0.00 0.00 0.00 0.00 0.00 -0.00 0.00 0.00 0.00 -0.00 0.00 0.00 0.00 -0.00 0.00 0.00 -0.00 0.00 0.00 0.00 -6.82 8.47 27.58 6.93 -53.40 13.74 11.42 14.03 -36.51 0.00 0.00 -0.00 -18.16 -36.30 -3.80 -3.01 39.50 8.36 2.39 -33.54 1.39 -0.00 0.00 0.00 
-181.7543 90.5096 -228.8164 -10.96 26.47 29.21 0.00 0.00 0.00 0.00 0.00 0.00 0.00 0.00 0.00 0.00 0.00 0.00 0.00 0.00 0.00 0.00 0.00 0.00 0.00 0.00 0.00 0.00 0.00 0.00 0.00 0.00 0.00 0.00 0.00 0.00 0.00 0.00 0.00 0.00 0.00 0.00 0.00 0.00 0.00 -6.78 8.54 27.63 6.92 -53.38 13.72 11.38 13.97 -36.49 0.00 -0.00 0.00 -18.06 -36.23 -3.73 -3.01 39.51 8.36 2.42 -33.57 1.44 0.00 -0.00 0.00 
-181.7088 90.5129 -228.7372 -10.95 26.37 29.11 0.00 0.00 0.00 0.00 0.00 0.00 0.00 0.00 0.00 0.00 0.00 0.00 0.00 0.00 0.00 0.00 0.00 0.00 0.00 0.00 0.00 0.00 0.00 0.00 0.00 0.00 0.00 0.00 0.00 0.00 0.00 0.00 0.00 0.00 0.00 0.00 0.00 0.00 0.00 -6.75 8.66 27.73 6.91 -53.35 13.71 11.33 13.91 -36.47 -0.00 -0.00 0.00 -17.91 -36.09 -3.57 -3.01 39.51 8.36 2.44 -33.61 1.47 0.00 -0.01 -0.00 
-181.6609 90.5225 -228.6477 -10.91 26.24 28.97 0.00 0.00 0.00 0.00 0.00 0.00 0.00 0.00 0.00 0.00 0.00 0.00 0.00 0.00 0.00 0.00 0.00 0.00 0.00 0.00 0.00 0.00 0.00 0.00 0.00 0.00 0.00 0.00 0.00 0.00 0.00 0.00 0.00 0.00 0.00 0.00 0.00 0.00 0.00 -6.73 8.82 27.88 6.90 -53.31 13.69 11.29 13.85 -36.45 0.00 -0.01 0.00 -17.71 -35.90 -3.33 -3.01 39.51 8.36 2.46 -33.65 1.49 -0.00 -0.03 -0.00 
-181.6160 90.5302 -228.5623 -10.87 26.13 28.83 0.00 0.00 0.00 0.00 0.00 0.00 0.00 0.00 0.00 0.00 0.00 0.00 0.00 0.00 0.00 0.00 0.00 0.00 0.00 0.00 0.00 0.00 0.00 0.00 0.00 0.00 0.00 0.00 0.00 0.00 0.00 0.00 0.00 0.00 0.00 0.00 0.00 0.00 0.00 -6.73 8.95 28.03 6.89 -53.29 13.68 11.25 13.80 -36.44 0.00 -0.02 0.00 -17.55 -35.74 -3.12 -3.01 39.50 8.36 2.48 -33.69 1.52 -0.00 -0.04 -0.01 
-181.5798 90.5281 -228.4951 -10.86 26.12 28.75 0.00 0.00 0.00 0.00 0.00 0.00 0.00 0.00 0.00 0.00 0.00 0.00 0.00 0.00 0.00 0.00 0.00 0.00 0.00 0.00 0.00 0.00 0.00 0.00 0.00 0.00 0.00 0.00 0.00 0.00 0.00 0.00 0.00 0.00 0.00 0.00 0.00 0.00 0.00 -6.75 8.99 28.10 6.88 -53.27 13.67 11.22 13.75 -36.43 0.00 -0.02 0.00 -17.47 -35.69 -3.01 -3.01 39.51 8.36 2.50 -33.71 1.55 -0.00 -0.04 -0.01 
-181.5567 90.5109 -228.4548 -10.88 26.24 28.77 0.00 0.00 0.00 0.00 0.00 0.00 0.00 0.00 0.00 0.00 0.00 0.00 0.00 0.00 0.00 0.00 0.00 0.00 0.00 0.00 0.00 0.00 0.00 0.00 0.00 0.00 0.00 0.00 0.00 0.00 0.00 0.00 0.00 0.00 0.00 0.00 0.00 0.00 0.00 -6.80 8.90 28.08 6.88 -53.28 13.67 11.21 13.72 -36.44 0.00 -0.03 0.00 -17.54 -35.80 -3.06 -3.01 39.54 8.37 2.52 -33.71 1.60 -0.00 -0.03 -0.01 
-181.5427 90.4838 -228.4321 -10.93 26.45 28.84 0.00 0.00 0.00 0.00 0.00 0.00 0.00 0.00 0.00 0.00 0.00 0.00 0.00 0.00 0.00 0.00 0.00 0.00 0.00 0.00 0.00 0.00 0.00 0.00 0.00 0.00 0.00 0.00 0.00 0.00 0.00 0.00 0.00 0.00 0.00 0.00 0.00 0.00 0.00 -6.87 8.72 27.99 6.89 -53.30 13.68 11.21 13.69 -36.47 0.00 -0.03 0.01 -17.70 -36.02 -3.21 -3.02 39.59 8.38 2.55 -33.70 1.66 -0.00 -0.01 -0.00 
-181.5309 90.4548 -228.4147 -10.99 26.68 28.94 0.00 0.00 0.00 0.00 0.00 0.00 0.00 0.00 0.00 0.00 0.00 0.00 0.00 0.00 0.00 0.00 0.00 0.00 0.00 0.00 0.00 0.00 0.00 0.00 0.00 0.00 0.00 0.00 0.00 0.00 0.00 0.00 0.00 0.00 0.00 0.00 0.00 0.00 0.00 -6.95 8.52 27.89 6.90 -53.32 13.69 11.21 13.67 -36.49 0.00 -0.03 0.01 -17.88 -36.27 -3.40 -3.03 39.64 8.40 2.58 -33.68 1.72 -0.00 0.02 0.00 
-181.5145 90.4319 -228.3902 -11.04 26.87 29.01 0.00 0.00 0.00 0.00 0.00 0.00 0.00 0.00 0.00 0.00 0.00 0.00 0.00 0.00 0.00 0.00 0.00 0.00 0.00 0.00 0.00 0.00 0.00 0.00 0.00 0.00 0.00 0.00 0.00 0.00 0.00 0.00 0.00 0.00 0.00 0.00 0.00 0.00 0.00 -7.01 8.36 27.81 6.90 -53.33 13.70 11.20 13.64 -36.51 0.00 -0.03 0.01 -18.02 -36.47 -3.54 -3.04 39.68 8.41 2.61 -33.67 1.77 -0.00 0.05 0.01 
-181.4929 90.4158 -228.3573 -11.09 27.00 29.06 0.00 0.00 0.00 0.00 0.00 0.00 0.00 0.00 0.00 0.00 0.00 0.00 0.00 0.00 0.00 0.00 0.00 0.00 0.00 0.00 0.00 0.00 0.00 0.00 0.00 0.00 0.00 0.00 0.00 0.00 0.00 0.00 0.00 0.00 0.00 0.00 0.00 0.00 0.00 -7.04 8.24 27.76 6.90 -53.32 13.69 11.18 13.60 -36.52 0.00 -0.03 0.00 -18.11 -36.59 -3.63 -3.05 39.72 8.42 2.64 -33.69 1.82 -0.00 0.09 0.02 
-181.4692 90.4027 -228.3221 -11.14 27.11 29.11 0.00 0.00 0.00 0.00 0.00 0.00 0.00 0.00 0.00 0.00 0.00 0.00 0.00 0.00 0.00 0.00 0.00 0.00 0.00 0.00 0.00 0.00 0.00 0.00 0.00 0.00 0.00 0.00 0.00 0.00 0.00 0.00 0.00 0.00 0.00 0.00 0.00 0.00 0.00 -7.06 8.14 27.72 6.89 -53.30 13.69 11.16 13.56 -36.53 0.00 -0.02 0.00 -18.18 -36.70 -3.71 -3.05 39.76 8.43 2.67 -33.72 1.87 -0.00 0.15 0.03 
-181.4425 90.3938 -228.2826 -11.18 27.19 29.14 0.00 0.00 0.00 0.00 0.00 0.00 0.00 0.00 0.00 0.00 0.00 0.00 0.00 0.00 0.00 0.00 0.00 0.00 0.00 0.00 0.00 0.00 0.00 0.00 0.00 0.00 0.00 0.00 0.00 0.00 0.00 0.00 0.00 0.00 0.00 0.00 0.00 0.00 0.00 -7.06 8.07 27.70 6.88 -53.28 13.67 11.13 13.51 -36.53 0.00 -0.01 0.00 -18.21 -36.77 -3.76 -3.06 39.79 8.45 2.70 -33.75 1.91 -0.00 0.19 0.03 
-181.4114 90.3900 -228.2370 -11.21 27.24 29.15 0.00 0.00 0.00 0.00 0.00 0.00 0.00 0.00 0.00 0.00 0.00 0.00 0.00 0.00 0.00 0.00 0.00 0.00 0.00 0.00 0.00 0.00 0.00 0.00 0.00 0.00 0.00 0.00 0.00 0.00 0.00 0.00 0.00 0.00 0.00 0.00 0.00 0.00 0.00 -7.05 8.04 27.71 6.87 -53.26 13.66 11.09 13.45 -36.53 0.00 -0.00 0.00 -18.22 -36.81 -3.76 -3.07 39.83 8.46 2.71 -33.75 1.94 -0.00 0.22 0.04 
-181.3733 90.4007 -228.1834 -11.21 27.20 29.11 0.00 0.00 0.00 0.00 0.00 0.00 0.00 0.00 0.00 0.00 0.00 0.00 0.00 0.00 0.00 0.00 0.00 0.00 0.00 0.00 0.00 0.00 0.00 0.00 0.00 0.00 0.00 0.00 0.00 0.00 0.00 0.00 0.00 0.00 0.00 0.00 0.00 0.00 0.00 -7.03 8.08 27.75 6.86 -53.22 13.65 11.05 13.38 -36.51 -0.00 0.01 -0.00 -18.19 -36.76 -3.71 -3.08 39.87 8.47 2.72 -33.74 1.96 -0.00 0.21 0.04 
-181.3296 90.4225 -228.1233 -11.19 27.11 29.05 0.00 0.00 0.00 0.00 0.00 0.00 0.00 0.00 0.00 0.00 0.00 0.00 0.00 0.00 0.00 0.00 0.00 0.00 0.00 0.00 0.00 0.00 0.00 0.00 0.00 0.00 0.00 0.00 0.00 0.00 0.00 0.00 0.00 0.00 0.00 0.00 0.00 0.00 0.00 -7.00 8.19 27.82 6.85 -53.19 13.63 10.99 13.31 -36.48 0.00 0.03 -0.01 -18.11 -36.64 -3.60 -3.08 39.91 8.48 2.72 -33.72 1.96 -0.00 0.19 0.03 
-181.2853 90.4367 -228.0599 -11.18 27.03 28.98 0.00 0.00 0.00 0.00 0.00 0.00 0.00 0.00 0.00 0.00 0.00 0.00 0.00 0.00 0.00 0.00 0.00 0.00 0.00 0.00 0.00 0.00 0.00 0.00 0.00 0.00 0.00 0.00 0.00 0.00 0.00 0.00 0.00 0.00 0.00 0.00 0.00 0.00 0.00 -6.97 8.29 27.91 6.83 -53.16 13.61 10.93 13.23 -36.46 0.00 0.05 -0.01 -18.03 -36.55 -3.49 -3.09 39.96 8.50 2.72 -33.69 1.96 -0.00 0.16 0.03 
-181.2453 90.4250 -227.9968 -11.22 27.03 28.92 0.00 0.00 0.00 0.00 0.00 0.00 0.00 0.00 0.00 0.00 0.00 0.00 0.00 0.00 0.00 0.00 0.00 0.00 0.00 0.00 0.00 0.00 0.00 0.00 0.00 0.00 0.00 0.00 0.00 0.00 0.00 0.00 0.00 0.00 0.00 0.00 0.00 0.00 0.00 -6.95 8.30 27.98 6.83 -53.14 13.60 10.90 13.18 -36.45 0.00 0.05 -0.01 -17.96 -36.57 -3.41 -3.11 40.03 8.52 2.71 -33.64 1.96 -0.00 0.13 0.02 
-181.2148 90.3691 -227.9418 -11.35 27.18 28.92 0.00 0.00 0.00 0.00 0.00 0.00 0.00 0.00 0.00 0.00 0.00 0.00 0.00 0.00 0.00 0.00 0.00 0.00 0.00 0.00 0.00 0.00 0.00 0.00 0.00 0.00 0.00 0.00 0.00 0.00 0.00 0.00 0.00 0.00 0.00 0.00 0.00 0.00 0.00 -6.93 8.14 28.01 6.83 -53.15 13.61 10.88 13.15 -36.46 0.00 0.05 -0.01 -17.94 -36.80 -3.42 -3.13 40.12 8.55 2.70 -33.55 1.96 -0.00 0.09 0.02 
-181.1900 90.2832 -227.8908 -11.53 27.42 28.95 0.00 0.00 0.00 0.00 0.00 0.00 0.00 0.00 0.00 0.00 0.00 0.00 0.00 0.00 0.00 0.00 0.00 0.00 0.00 0.00 0.00 0.00 0.00 0.00 0.00 0.00 0.00 0.00 0.00 0.00 0.00 0.00 0.00 0.00 0.00 0.00 0.00 0.00 0.00 -6.92 7.88 28.03 6.84 -53.18 13.63 10.89 13.14 -36.48 0.00 0.03 -0.01 -17.94 -37.17 -3.48 -3.15 40.24 8.58 2.69 -33.44 1.97 0.00 0.04 0.01 
-181.1619 90.1978 -227.8290 -11.71 27.64 28.95 0.00 0.00 0.00 0.00 0.00 0.00 0.00 0.00 0.00 0.00 0.00 0.00 0.00 0.00 0.00 0.00 0.00 0.00 0.00 0.00 0.00 0.00 0.00 0.00 0.00 0.00 0.00 0.00 0.00 0.00 0.00 0.00 0.00 0.00 0.00 0.00 0.00 0.00 0.00 -6.92 7.65 28.07 6.86 -53.21 13.64 10.89 13.13 -36.51 -0.00 0.01 -0.00 -17.91 -37.51 -3.50 -3.17 40.36 8.62 2.68 -33.34 1.97 0.00 0.01 0.00 
